<svg xmlns="http://www.w3.org/2000/svg" viewBox="0 0 300 225" width="200" height="200">
	<defs>
		<clipPath clipPathUnits="userSpaceOnUse" id="cp1">
			<path d="M0 0L353 0L353 225L0 225Z" />
		</clipPath>
		<clipPath clipPathUnits="userSpaceOnUse" id="cp2">
			<path d="M53.75 33.33L8.41 85.27L8.41 176.44L245.7 176.44L245.7 33.33L53.75 33.33Z" />
		</clipPath>
		<clipPath clipPathUnits="userSpaceOnUse" id="cp3">
			<path d="M53.75 33.33L8.41 85.27L8.41 176.44L245.7 176.44L245.7 33.33L53.75 33.33Z" />
		</clipPath>
	</defs>
	<style>
		tspan { white-space:pre }
		.shp0 { fill: none;stroke: #fdd304;stroke-width: 6 } 
		.shp1 { fill: #ffffff } 
		.shp2 { fill: none;stroke: #231f20;stroke-width: 6 } 
		.shp3 { fill: #ffffff;stroke: #231f20;stroke-width: 6 } 
		.shp4 { fill: #231f20 } 
		.shp5 { fill: #f39323 } 
	</style>
	<g id="Page 1" clip-path="url(#cp1)">
		<path id="Path 1" class="shp0" d="M8.41 85.27L53.75 33.33L245.7 33.33L245.7 176.44L8.41 176.44L8.41 85.27Z" />
		<path id="Path 2" class="shp1" d="M8.41 85.27L53.75 33.33L245.7 33.33L245.7 176.44L8.41 176.44L8.41 85.27ZM53.75 33.33L8.74 84.89L53.92 84.89L53.92 33.33L53.75 33.33Z" />
		<g id="Mask" clip-path="url(#cp2)">
			<path id="Path 4" class="shp2" d="M53.92 28.96L53.92 84.89L4.2 84.89L24.98 24.12L51.02 17.78L53.92 16.76L53.92 27.69M17 94.72L17 161.36M236.14 41.22L236.14 133.31M44.45 0.01L44.45 66.66" />
		</g>
		<path id="Path 6" class="shp2" d="M189.57 113.66L42.25 113.66M189.57 124.69L42.25 124.69M189.57 136.62L42.25 136.62M108.9 148.54L41.9 148.54M158.36 148.19L130.65 148.19" />
		<g id="Mask" clip-path="url(#cp3)">
			<path id="Path 8" class="shp2" d="M236.05 166.25L236.05 138.54" />
			<path id="Path 9" class="shp3" d="M153.88 91.82L90.75 91.82C81.16 91.82 73.38 84.05 73.38 74.46L73.38 61.74C73.38 52.16 81.16 44.38 90.75 44.38L153.88 44.38C163.47 44.38 171.25 52.16 171.25 61.74L171.25 74.46C171.25 84.05 163.47 91.82 153.88 91.82Z" />
			<path id="Path 10" class="shp3" d="M201.9 93.05L190.58 93.05C184.7 93.05 179.93 88.28 179.93 82.4L179.93 53.72C179.93 47.84 184.7 43.07 190.58 43.07L201.9 43.07C207.78 43.07 212.55 47.84 212.55 53.72L212.55 82.4C212.55 88.28 207.78 93.05 201.9 93.05Z" />
		</g>
		<path id="Path 12" class="shp2" d="M8.41 85.27L53.75 33.33L245.7 33.33L245.7 176.44L8.41 176.44L8.41 85.27Z" />
		<path id="Path 13" class="shp4" d="M275.82 119.28L268.45 119.28L268.45 114.28L275.82 114.28L275.82 119.28ZM275.95 164.01L268.59 164.01L268.59 159.01L275.95 159.01L275.95 164.01Z" />
		<path id="Path 14" class="shp5" d="M272.27 179.26L254.51 179.26L254.51 42.54L272.27 42.54L272.27 179.26ZM263.39 24.12L267.83 33.33L272.27 42.54L263.39 42.54L254.51 42.54L258.95 33.33L263.39 24.12Z" />
		<path id="Path 15" class="shp4" d="M280.03 168.04L275.82 168.04L275.82 105.78L280.03 105.78L280.03 168.04ZM258.95 33.33L254.51 42.54L272.27 42.54L267.83 33.33L263.39 24.12L258.95 33.33Z" />
	</g>
</svg>