<svg xmlns="http://www.w3.org/2000/svg" viewBox="0 0 269 219" width="200" height="200">
	<defs>
		<clipPath clipPathUnits="userSpaceOnUse" id="cp1">
			<path d="M0 0L269 0L269 219L0 219Z" />
		</clipPath>
	</defs>
	<style>
		tspan { white-space:pre }
		.shp0 { fill: #ffffff } 
		.shp1 { fill: #f39323 } 
		.shp2 { fill: #000000 } 
	</style>
	<g id="Page 1" clip-path="url(#cp1)">
		<path id="Path 1" fill-rule="evenodd" class="shp0" d="M151.5 213L143.05 213L143.05 213.25L89.92 213.25L89.92 80.39L143.05 80.39L143.05 80.56L151.5 80.56L151.5 213ZM121.34 209.14L121.34 136.81C121.34 135.16 120 133.81 118.34 133.81C116.69 133.81 115.34 135.16 115.34 136.81L115.34 209.14C115.34 210.8 116.69 212.14 118.34 212.14C120 212.14 121.34 210.8 121.34 209.14ZM98.61 204.39C98.61 206.04 99.95 207.39 101.61 207.39C103.26 207.39 104.61 206.04 104.61 204.39L104.61 163.77C104.61 162.11 103.26 160.77 101.61 160.77C99.95 160.77 98.61 162.11 98.61 163.77L98.61 204.39ZM256.82 213L198.24 213L198.24 80.56L256.82 80.56L256.82 213ZM198.24 41.03L263.45 41.03L263.45 74.6L259.82 74.6L259.82 74.56L198.24 74.56L198.24 41.03ZM151.5 41.03L151.5 74.56L89.92 74.56L89.92 74.6L84.39 74.6L84.39 41.03L151.5 41.03Z" />
		<path id="Path 2" class="shp1" d="M0 115.02L0 135.72L20.7 115.02L0 115.02ZM85.03 146.28L12.41 218.89L42.53 218.89L85.03 176.4L85.03 146.28ZM85.03 192.03L58.16 218.89L77.46 218.89L85.03 211.33L85.03 192.03ZM85.03 115.02L72.96 115.02L0 187.98L0 215.68L85.03 130.65L85.03 115.02ZM57.33 115.02L54.82 115.02L36.33 115.02L0 151.35L0 172.35L57.33 115.02Z" />
		<path id="Path 3" class="shp2" d="M36.33 115.02L54.82 115.02L19.89 83.05L30.35 115.02L20.7 115.02L0 135.72L0 151.35L36.33 115.02Z" />
		<path id="Path 4" class="shp1" d="M133.18 -0.14L144.68 35.03L171.59 35.03L133.18 -0.14ZM216.55 -0.14L178.15 35.03L205.06 35.03L216.55 -0.14Z" />
		<path id="Path 5" fill-rule="evenodd" class="shp2" d="M269.45 35.03L269.45 80.6L262.82 80.6L262.82 219L85.03 219L85.03 218.89L77.46 218.89L85.03 211.33L85.03 192.04L58.16 218.89L42.53 218.89L85.03 176.4L85.03 146.28L12.41 218.89L0 218.89L0 215.68L85.03 130.65L85.03 115.02L72.96 115.02L0 187.98L0 172.35L57.33 115.02L68.34 115.02L85.03 99.75L85.03 80.6L78.39 80.6L78.39 35.03L269.45 35.03ZM198.24 213L256.82 213L256.82 80.56L143.05 80.56L143.05 80.39L89.92 80.39L89.92 213.25L143.05 213.25L143.05 213L151.5 213L151.5 213.25L198.24 213.25L198.24 213ZM263.45 41.03L198.24 41.03L198.24 40.66L151.5 40.66L151.5 41.03L84.39 41.03L84.39 74.6L89.92 74.6L89.92 74.56L259.82 74.56L259.82 74.6L263.45 74.6L263.45 41.03Z" />
		<path id="Path 6" class="shp1" d="M151.5 80.56L151.5 213L151.5 213.25L198.24 213.25L198.24 213L198.24 80.56L151.5 80.56ZM198.24 40.66L151.5 40.66L151.5 41.03L151.5 74.56L198.24 74.56L198.24 41.03L198.24 40.66Z" />
		<path id="Path 7" class="shp2" d="M101.61 207.38C103.26 207.38 104.61 206.04 104.61 204.38L104.61 163.77C104.61 162.11 103.26 160.77 101.61 160.77C99.95 160.77 98.61 162.11 98.61 163.77L98.61 204.38C98.61 206.04 99.95 207.38 101.61 207.38ZM121.34 136.81C121.34 135.16 120 133.81 118.34 133.81C116.69 133.81 115.34 135.16 115.34 136.81L115.34 209.14C115.34 210.79 116.69 212.14 118.34 212.14C120 212.14 121.34 210.79 121.34 209.14L121.34 136.81Z" />
	</g>
</svg>