<svg xmlns="http://www.w3.org/2000/svg" viewBox="0 0 127 254" width="200" height="200">
	<defs>
		<clipPath clipPathUnits="userSpaceOnUse" id="cp1">
			<path d="M0 0L127 0L127 254L0 254Z" />
		</clipPath>
	</defs>
	<style>
		tspan { white-space:pre }
		.shp0 { fill: #ffffff;stroke: #231f20;stroke-width: 6 } 
		.shp1 { fill: none;stroke: #231f20;stroke-width: 6 } 
		.shp2 { fill: #ffffff } 
		.shp3 { fill: #f39323 } 
		.shp4 { fill: none;stroke: #fdd304;stroke-width: 6 } 
		.shp5 { fill: none;stroke: #231f20;stroke-linecap:round;stroke-width: 6 } 
	</style>
	<g id="Page 1" clip-path="url(#cp1)">
		<path id="Path 1" class="shp0" d="M97.92 251L28.64 251C14.54 251 3 239.46 3 225.37L3 88.85C3 74.75 14.54 63.21 28.64 63.21L97.92 63.21C112.02 63.21 123.55 74.75 123.55 88.85L123.55 225.37C123.55 239.46 112.02 251 97.92 251Z" />
		<path id="Path 2" class="shp1" d="M21.85 107.14L21.85 104.23C21.85 96.43 28.23 90.06 36.02 90.06L90.54 90.06C98.33 90.06 104.7 96.43 104.7 104.23L104.7 107.14C104.7 114.93 98.33 121.31 90.54 121.31L36.02 121.31C28.23 121.31 21.85 114.93 21.85 107.14ZM73.52 147.67C73.52 152.23 69.82 155.93 65.27 155.93C60.71 155.93 57.01 152.23 57.01 147.67C57.01 143.11 60.71 139.42 65.27 139.42C69.82 139.42 73.52 143.11 73.52 147.67ZM105.88 147.67C105.88 152.23 102.18 155.93 97.62 155.93C93.06 155.93 89.36 152.23 89.36 147.67C89.36 143.11 93.06 139.42 97.62 139.42C102.18 139.42 105.88 143.11 105.88 147.67ZM40.06 147.67C40.06 152.23 36.36 155.93 31.8 155.93C27.24 155.93 23.55 152.23 23.55 147.67C23.55 143.11 27.24 139.42 31.8 139.42C36.36 139.42 40.06 143.11 40.06 147.67ZM73.52 174.68C73.52 179.24 69.82 182.93 65.27 182.93C60.71 182.93 57.01 179.24 57.01 174.68C57.01 170.12 60.71 166.42 65.27 166.42C69.82 166.42 73.52 170.12 73.52 174.68ZM105.88 174.68C105.88 179.24 102.18 182.93 97.62 182.93C93.06 182.93 89.36 179.24 89.36 174.68C89.36 170.12 93.06 166.42 97.62 166.42C102.18 166.42 105.88 170.12 105.88 174.68ZM40.06 174.68C40.06 179.24 36.36 182.93 31.8 182.93C27.24 182.93 23.55 179.24 23.55 174.68C23.55 170.12 27.24 166.42 31.8 166.42C36.36 166.42 40.06 170.12 40.06 174.68Z" />
		<path id="Path 3" class="shp2" d="M96.06 85.8L31.07 85.8L31.07 60.2L96.06 60.2L96.06 85.8Z" />
		<path id="Path 4" class="shp3" d="M91.2 3.64L89.05 -0.08L86.91 3.64L84.77 7.35L84.71 7.35L82.57 3.64L80.43 -0.08L78.28 3.64L76.45 6.81L74.62 3.64L72.48 -0.08L70.33 3.64L68.19 7.35L66.04 3.64L63.9 -0.08L61.76 3.64L59.92 6.81L58.09 3.64L55.95 -0.08L53.81 3.64L51.66 7.35L49.52 3.64L47.38 -0.08L45.23 3.64L43.4 6.81L41.57 3.64L39.42 -0.08L37.28 3.64L35.14 7.35L35.14 72.4L93.34 72.4L93.34 7.35L91.2 3.64Z" />
		<path id="Path 5" class="shp4" d="M35.14 78.99L93.34 78.99" />
		<path id="Path 6" class="shp1" d="M74.08 201.68C74.08 206.24 70.38 209.94 65.82 209.94C61.27 209.94 57.57 206.24 57.57 201.68C57.57 197.13 61.27 193.43 65.82 193.43C70.38 193.43 74.08 197.13 74.08 201.68ZM106.43 201.68C106.43 206.24 102.73 209.94 98.18 209.94C93.62 209.94 89.92 206.24 89.92 201.68C89.92 197.13 93.62 193.43 98.18 193.43C102.73 193.43 106.43 197.13 106.43 201.68ZM40.61 201.68C40.61 206.24 36.92 209.94 32.36 209.94C27.8 209.94 24.1 206.24 24.1 201.68C24.1 197.13 27.8 193.43 32.36 193.43C36.92 193.43 40.61 197.13 40.61 201.68Z" />
		<path id="Path 7" class="shp5" d="M10.23 230.23L66.29 230.23M80.67 230.23L98.18 230.23" />
	</g>
</svg>